<!-- Live Polling System – Icon Only -->
<svg xmlns="http://www.w3.org/2000/svg" width="72" height="72" viewBox="0 0 72 72" role="img" aria-label="Live Polls icon">
  <defs>
    <style>
      .brand { fill: #4F46E5; }
      .accent { fill: #10B981; }
    </style>
  </defs>
  <!-- bubble -->
  <path class="brand" d="M36 0C16.118 0 0 13.431 0 30c0 6.95 2.774 13.32 7.46 18.297L4.2 62.7a2 2 0 0 0 2.64 2.64l14.403-3.26C25.32 66.226 30.99 68 36 68c19.882 0 36-13.431 36-30S55.882 0 36 0z" opacity="0.12"/>
  <path d="M36 6C19.984 6 6 17.879 6 32c0 6.117 2.49 11.726 6.726 16.02l-2.18 8.093a1.5 1.5 0 0 0 1.98 1.98l8.093-2.18C25.913 59.51 30.57 61 36 61c16.016 0 30-11.879 30-26S52.016 6 36 6z"
        fill="none" stroke="#4F46E5" stroke-width="2.5" stroke-linecap="round" stroke-linejoin="round"/>
  <!-- bars -->
  <rect x="20" y="36" width="6" height="12" rx="2" class="brand"/>
  <rect x="30" y="28" width="6" height="20" rx="2" class="brand"/>
  <rect x="40" y="20" width="6" height="28" rx="2" class="brand"/>
  <!-- live dot -->
  <circle cx="54" cy="18" r="4" class="accent">
    <animate attributeName="opacity" values="1;0.25;1" dur="1.4s" repeatCount="indefinite"/>
  </circle>
</svg>
